<?xml version="1.0" standalone="no"?>
<!DOCTYPE svg PUBLIC "-//W3C//DTD SVG 20010904//EN"
 "http://www.w3.org/TR/2001/REC-SVG-20010904/DTD/svg10.dtd">
<svg version="1.0" xmlns="http://www.w3.org/2000/svg"
 width="512.000000pt" height="512.000000pt" viewBox="0 0 512.000000 512.000000"
 preserveAspectRatio="xMidYMid meet">

<g transform="translate(0.000000,512.000000) scale(0.100000,-0.100000)"
fill="#000000" stroke="none">
<path d="M1570 3989 c-44 -24 -62 -42 -92 -92 -83 -142 -250 -340 -413 -488
-94 -86 -265 -218 -317 -245 -23 -12 -40 -37 -70 -102 -65 -139 -105 -251
-137 -378 -30 -120 -66 -335 -59 -356 2 -6 143 198 313 453 170 255 428 637
572 848 145 211 262 385 261 387 -2 1 -28 -11 -58 -27z"/>
<path d="M2350 3869 c-347 -45 -681 -195 -943 -424 -563 -492 -733 -1315 -421
-2031 3 -7 -15 -14 -50 -18 -31 -4 -68 -13 -83 -21 -16 -7 -59 -16 -96 -20
-37 -4 -79 -12 -91 -19 l-24 -12 59 -118 c109 -217 268 -430 439 -587 50 -46
90 -85 90 -88 0 -3 -17 -17 -37 -31 -20 -14 -98 -84 -173 -156 -120 -116 -140
-131 -178 -138 -60 -9 -92 -45 -92 -102 0 -31 7 -51 24 -71 l24 -28 432 -3
431 -3 29 30 c24 23 30 38 30 71 0 67 -29 96 -114 115 l-29 6 28 29 28 29 50
-26 c58 -29 211 -86 307 -114 195 -57 429 -84 650 -76 260 11 472 56 713 153
l138 56 24 -22 c30 -28 26 -36 -24 -44 -72 -11 -110 -84 -79 -151 24 -54 32
-55 481 -55 397 0 415 1 439 20 39 30 52 71 38 115 -14 42 -43 63 -102 77 -36
8 -63 28 -158 122 -91 89 -190 176 -218 192 -2 1 57 62 131 135 75 75 170 182
215 243 408 554 520 1257 302 1908 -58 173 -134 330 -170 352 -49 28 -181 129
-265 201 l-80 68 65 -66 64 -67 -81 -83 -81 -82 24 -35 c83 -118 209 -432 236
-590 l12 -71 -116 -117 -116 -117 -5 -121 c-45 -966 -1008 -1630 -1925 -1328
-405 135 -743 449 -903 841 -44 107 -84 255 -95 346 -6 48 -10 57 -27 57 -16
0 -17 3 -7 15 10 13 9 15 -10 15 -19 0 -20 2 -10 15 11 13 8 15 -14 15 -16 0
-25 4 -21 10 4 6 -5 10 -21 10 -22 0 -25 2 -14 15 10 13 9 15 -11 15 -20 0
-13 10 48 72 l72 73 16 104 c48 324 190 607 421 836 231 229 520 371 849 415
l80 11 123 122 c67 67 122 125 122 129 0 10 -266 8 -350 -3z"/>
<path d="M3324 3077 c-290 -191 -408 -300 -612 -562 -72 -93 -132 -173 -132
-177 0 -5 7 -8 16 -8 35 0 97 -46 123 -91 l26 -46 170 134 c197 156 238 194
347 323 89 106 294 404 303 442 4 16 -1 32 -15 51 -38 47 -69 38 -226 -66z"/>
<path d="M1295 2110 c4 -6 197 -10 546 -10 353 0 539 3 539 10 0 7 -189 10
-546 10 -361 0 -543 -3 -539 -10z"/>
<path d="M2732 2086 c-12 -33 -75 -99 -102 -108 -17 -5 126 -183 216 -268 113
-106 374 -290 411 -290 17 0 53 36 53 54 0 16 -120 200 -189 291 -84 111 -204
224 -367 346 -6 5 -15 -4 -22 -25z"/>
</g>
</svg>
